<?xml version="1.0" encoding="UTF-8"?>
<svg id="Layer_1" data-name="Layer 1" xmlns="http://www.w3.org/2000/svg" version="1.1" viewBox="0 0 211.2 227.4">
  <defs>
    <style>
      .cls-1 {
        fill: #464646;
      }

      .cls-1, .cls-2, .cls-3, .cls-4, .cls-5 {
        stroke-width: 0px;
      }

      .cls-2 {
        fill: #8c8c8c;
      }

      .cls-3 {
        fill: #ffd3cf;
      }

      .cls-4 {
        fill: #fff;
      }

      .cls-5 {
        fill: #231f20;
      }
    </style>
  </defs>
  <g id="kong-logo">
    <g id="Group_11" data-name="Group 11">
      <g id="Group_9" data-name="Group 9">
        <circle id="Ellipse_5" data-name="Ellipse 5" class="cls-1" cx="169.1" cy="58.1" r="17.5"/>
        <circle id="Ellipse_6" data-name="Ellipse 6" class="cls-2" cx="166" cy="60.5" r="11.1"/>
      </g>
      <g id="Group_10" data-name="Group 10">
        <circle id="Ellipse_7" data-name="Ellipse 7" class="cls-1" cx="42.2" cy="58.1" r="17.5"/>
        <circle id="Ellipse_8" data-name="Ellipse 8" class="cls-2" cx="45.3" cy="60.5" r="11.1"/>
      </g>
    </g>
    <path id="Path_23" data-name="Path 23" class="cls-1" d="M169.2,62.5h0c0-19.9-16.1-36.1-36.1-36.1h-54.9c-19.9,0-36.1,16.1-36.1,36.1h0c0,10-4,19.5-11.2,26.4l-1.2,1.2c-12.7,13.1-19.8,30.7-19.8,48.9h0c0,43.3,35.1,78.3,78.3,78.3h34.6c43.3,0,78.3-35.1,78.3-78.3h0c0-18.3-7-35.8-19.8-48.9-12.7-13.1-.8-.8-1.2-1.2-7.2-6.9-11.2-16.5-11.2-26.4h.3Z"/>
    <path id="Path_24" data-name="Path 24" class="cls-5" d="M20.9,139h0c0-18.3,7-35.8,19.8-48.9.4-.4.8-.8,1.2-1.2,7.2-6.9,11.2-16.5,11.2-26.4h0c0-19.9,16.1-36.1,36.1-36.1h-10.9c-19.9,0-36.1,16.1-36.1,36.1h0c0,10-4,19.5-11.2,26.4l-1.2,1.2c-12.7,13.1-19.8,30.7-19.8,48.9h0c0,43.3,35.1,78.3,78.3,78.3h10.9c-43.3,0-78.3-35.1-78.3-78.3Z"/>
    <path id="Path_25" data-name="Path 25" class="cls-2" d="M169.2,117.8c0-18.4-14.9-33.3-33.3-33.3h0c-18.4,0-24.8,7.8-30.2,19.1-5.5-11.7-17.3-19.1-30.2-19.1s-33.3,14.9-33.3,33.3,10.3,28.2,24.3,32.1c-6.7,21.7,5.5,44.6,27.2,51.3s44.6-5.5,51.3-27.2c1.2-3.9,1.8-8,1.8-12.1,0-22.7-.6-8.3-1.8-12.1,14.4-4.1,24.3-17.2,24.3-32.1h-.1Z"/>
    <path id="Path_26" data-name="Path 26" class="cls-1" d="M105.6,188.2c-22.5,0-40.8-16.6-40.8-37.1s.7-1.5,1.6-1.5,1.5.7,1.5,1.5c0,18.7,16.9,34,37.7,34s37.7-15.2,37.7-34,.6-1.6,1.5-1.6,1.6.6,1.6,1.5h0c0,20.5-18.3,37.2-40.8,37.2h0Z"/>
    <g id="Group_12" data-name="Group 12">
      <circle id="Ellipse_9" data-name="Ellipse 9" class="cls-5" cx="74.9" cy="119.6" r="12.9"/>
      <circle id="Ellipse_10" data-name="Ellipse 10" class="cls-5" cx="136.4" cy="119.6" r="12.9"/>
      <circle id="Ellipse_11" data-name="Ellipse 11" class="cls-4" cx="78.8" cy="117.5" r="3.9"/>
      <circle id="Ellipse_12" data-name="Ellipse 12" class="cls-4" cx="132.5" cy="117.5" r="3.9"/>
    </g>
    <path id="Path_27" data-name="Path 27" class="cls-1" d="M91.1,152.7c-.3,0-.5,0-.7-.2-5.6-3-7.7-9.9-4.7-15.5s9.9-7.7,15.5-4.7c1.9,1,3.5,2.5,4.5,4.4,3.2-5.5,10.2-7.3,15.6-4.1,3.5,2,5.7,5.8,5.7,9.9,0,6.3-2.7,8.3-6.1,10.1-.7.4-1.7.2-2.1-.6-.4-.7-.2-1.7.6-2.1h0c2.7-1.5,4.4-2.6,4.4-7.4s-3.7-8.3-8.3-8.4c-4.6,0-8.3,3.7-8.4,8.3h0c0,.9-.6,1.6-1.5,1.6s-1.6-.6-1.6-1.5h0c0-4.7-3.7-8.4-8.4-8.4s-8.3,3.7-8.3,8.4,1.7,5.9,4.4,7.4c.8.4,1,1.3.6,2.1-.3.5-.8.8-1.4.8h.2Z"/>
    <g id="Group_13" data-name="Group 13">
      <circle id="Ellipse_13" data-name="Ellipse 13" class="cls-1" cx="97.7" cy="142.5" r="2.9"/>
      <circle id="Ellipse_14" data-name="Ellipse 14" class="cls-1" cx="113.6" cy="142.5" r="2.9"/>
    </g>
    <g id="Group_14" data-name="Group 14">
      <ellipse id="Ellipse_15" data-name="Ellipse 15" class="cls-1" cx="101.2" cy="20" rx="5.5" ry="11.1" transform="translate(3.6 53.3) rotate(-30)"/>
      <ellipse id="Ellipse_16" data-name="Ellipse 16" class="cls-1" cx="110" cy="20" rx="11.1" ry="5.5" transform="translate(37.7 105.3) rotate(-60)"/>
    </g>
    <g id="Group_15" data-name="Group 15">
      <ellipse id="Ellipse_17" data-name="Ellipse 17" class="cls-3" cx="43.7" cy="154.5" rx="11.1" ry="5.5"/>
      <ellipse id="Ellipse_18" data-name="Ellipse 18" class="cls-3" cx="167.6" cy="154.5" rx="11.1" ry="5.5"/>
    </g>
  </g>
</svg>