<svg xmlns="http://www.w3.org/2000/svg" width="33.996" height="31.5" viewBox="0 0 33.996 31.5">
  <path id="Collection" d="M34,30.41h0a1.089,1.089,0,0,1-1.09,1.09H1.09a1.09,1.09,0,0,1,0-2.179H5.753a6.69,6.69,0,0,1,4.794-5.365,6.7,6.7,0,0,1,4.89-4.685V17.021l-5.666-.767A9.729,9.729,0,0,1,1.36,7.833l-.872-6.6A1.089,1.089,0,0,1,1.691.01L8.281.9a9.723,9.723,0,0,1,8.238,7.444A9.715,9.715,0,0,1,24.765.9L31.381.01a1.09,1.09,0,0,1,1.225,1.225l-.915,6.6a9.723,9.723,0,0,1-8.421,8.421l-5.666.767v2.1a6.682,6.682,0,0,1,5.836,4.838,6.7,6.7,0,0,1,4.794,5.365h4.672A1.089,1.089,0,0,1,34,30.41" transform="translate(0 0)" fill="#fff"/>
</svg>
