<svg id="Button_-_Sort" data-name="Button - Sort" xmlns="http://www.w3.org/2000/svg" width="32.934" height="25.39" viewBox="0 0 32.934 25.39">
  <path id="Icon_ionic-ios-arrow-round-up" data-name="Icon ionic-ios-arrow-round-up" d="M27.857,17.08a1.152,1.152,0,0,1-1.623.009l-5.371-5.353v20.4a1.146,1.146,0,0,1-2.293,0v-20.4L13.2,17.1a1.161,1.161,0,0,1-1.623-.009,1.142,1.142,0,0,1,.009-1.614l7.32-7.267h0a1.287,1.287,0,0,1,.362-.238,1.094,1.094,0,0,1,.441-.088,1.149,1.149,0,0,1,.8.326l7.32,7.267A1.123,1.123,0,0,1,27.857,17.08Z" transform="translate(4.753 -7.882)" fill="#01aae4"/>
  <path id="Icon_ionic-ios-arrow-round-up-2" data-name="Icon ionic-ios-arrow-round-up" d="M27.857,24.074a1.152,1.152,0,0,0-1.623-.009l-5.371,5.353V9.02a1.146,1.146,0,0,0-2.293,0v20.4L13.2,24.056a1.161,1.161,0,0,0-1.623.009,1.142,1.142,0,0,0,.009,1.614l7.32,7.267h0a1.287,1.287,0,0,0,.362.238,1.094,1.094,0,0,0,.441.088,1.149,1.149,0,0,0,.8-.326l7.32-7.267A1.123,1.123,0,0,0,27.857,24.074Z" transform="translate(-11.247 -7.882)" fill="#01aae4"/>
</svg>
