<svg xmlns="http://www.w3.org/2000/svg" width="31.236" height="26.942" viewBox="0 0 31.236 26.942">
  <g id="Icon_ionic-ios-albums" data-name="Icon ionic-ios-albums" transform="translate(-1.125 -3.445)">
    <path id="Path_20" data-name="Path 20" d="M30.071,11.32H3.409A2.291,2.291,0,0,0,1.125,13.6V28.692a2.291,2.291,0,0,0,2.284,2.284H30.077a2.291,2.291,0,0,0,2.284-2.284V13.6A2.3,2.3,0,0,0,30.071,11.32Z" transform="translate(0 -0.588)" fill="#fff"/>
    <path id="Path_21" data-name="Path 21" d="M28.573,9.2H5.411A.914.914,0,0,1,4.5,8.294h0a.914.914,0,0,1,.911-.911H28.573a.914.914,0,0,1,.911.911h0A.914.914,0,0,1,28.573,9.2Z" transform="translate(-0.252 -0.294)" fill="#fff"/>
    <path id="Path_22" data-name="Path 22" d="M26.737,5.267H7.583a.839.839,0,0,1-.833-.833V4.278a.839.839,0,0,1,.833-.833H26.737a.839.839,0,0,1,.833.833v.156A.839.839,0,0,1,26.737,5.267Z" transform="translate(-0.42)" fill="#fff"/>
  </g>
</svg>
