<?xml version="1.0" encoding="UTF-8"?>
<svg id="Layer_1" data-name="Layer 1" xmlns="http://www.w3.org/2000/svg" version="1.1" viewBox="0 0 230 297.8">
  <defs>
    <style>
      .cls-1 {
        fill: #464646;
      }

      .cls-1, .cls-2, .cls-3, .cls-4, .cls-5, .cls-6 {
        stroke-width: 0px;
      }

      .cls-2 {
        fill: #6ac15e;
      }

      .cls-3 {
        fill: #8c8c8c;
      }

      .cls-4 {
        fill: #ffd3cf;
      }

      .cls-5 {
        fill: #fff;
      }

      .cls-6 {
        fill: #231f20;
      }
    </style>
  </defs>
  <g id="Group_108" data-name="Group 108">
    <g id="Group_19" data-name="Group 19">
      <g id="kong-logo">
        <g id="Group_11" data-name="Group 11">
          <g id="Group_9" data-name="Group 9">
            <circle id="Ellipse_5" data-name="Ellipse 5" class="cls-1" cx="179.8" cy="56.5" r="17.5"/>
            <circle id="Ellipse_6" data-name="Ellipse 6" class="cls-3" cx="176.8" cy="58.9" r="11.1"/>
          </g>
          <g id="Group_10" data-name="Group 10">
            <circle id="Ellipse_7" data-name="Ellipse 7" class="cls-1" cx="53" cy="56.5" r="17.5"/>
            <circle id="Ellipse_8" data-name="Ellipse 8" class="cls-3" cx="56" cy="58.9" r="11.1"/>
          </g>
        </g>
        <path id="Path_23" data-name="Path 23" class="cls-1" d="M179.9,60.9h0c0-19.9-16.1-36.1-36.1-36.1h-54.9c-19.9,0-36.1,16.1-36.1,36.1h0c0,10-4,19.5-11.2,26.4l-1.2,1.2c-12.7,13.1-19.8,30.7-19.8,48.9h0c0,43.3,35.1,78.3,78.3,78.3h34.6c43.3,0,78.3-35.1,78.3-78.3h0c0-18.3-7-35.8-19.8-48.9-12.7-13.1-.8-.8-1.2-1.2-7.2-6.9-11.2-16.5-11.2-26.4h0Z"/>
        <path id="Path_24" data-name="Path 24" class="cls-6" d="M31.7,137.5h0c0-18.3,7-35.8,19.8-48.9.4-.4.8-.8,1.2-1.2,7.2-6.9,11.2-16.5,11.2-26.4h0c0-19.9,16.1-36.1,36.1-36.1h0-10.9c-19.9,0-36.1,16.1-36.1,36.1h0c0,10-4,19.5-11.2,26.4l-1.2,1.2c-12.7,13.1-19.8,30.7-19.8,48.9h0c0,43.3,35.1,78.3,78.3,78.3h10.9c-43.3,0-78.3-35.1-78.3-78.3Z"/>
        <path id="Path_25" data-name="Path 25" class="cls-3" d="M179.9,116.2c0-18.4-14.9-33.3-33.3-33.3h0c-18.4,0-24.8,7.8-30.2,19.1-5.5-11.7-17.3-19.1-30.2-19.1-13.3,0-33.3,14.9-33.3,33.3s10.3,28.2,24.3,32.1c-6.7,21.7,5.5,44.6,27.2,51.3,21.7,6.7,44.6-5.5,51.3-27.2,1.2-3.9,1.8-8,1.8-12.1,0-22.7-.6-8.3-1.8-12.1,14.4-4.1,24.3-17.2,24.3-32.1Z"/>
        <path id="Path_26" data-name="Path 26" class="cls-1" d="M116.4,186.6c-22.5,0-40.8-16.6-40.8-37.1,0-.9.7-1.5,1.6-1.5.8,0,1.5.7,1.5,1.5,0,18.7,16.9,34,37.7,34s37.7-15.2,37.7-34c0-.9.6-1.6,1.5-1.6.9,0,1.6.6,1.6,1.5,0,0,0,0,0,.1,0,20.4-18.3,37.1-40.8,37.1Z"/>
        <g id="Group_12" data-name="Group 12">
          <circle id="Ellipse_9" data-name="Ellipse 9" class="cls-6" cx="85.6" cy="118.1" r="12.9"/>
          <circle id="Ellipse_10" data-name="Ellipse 10" class="cls-6" cx="147.2" cy="118.1" r="12.9"/>
          <circle id="Ellipse_11" data-name="Ellipse 11" class="cls-5" cx="89.5" cy="115.9" r="3.9"/>
          <circle id="Ellipse_12" data-name="Ellipse 12" class="cls-5" cx="143.3" cy="115.9" r="3.9"/>
        </g>
        <path id="Path_27" data-name="Path 27" class="cls-1" d="M101.9,151.1c-.3,0-.5,0-.7-.2-5.6-3-7.7-9.9-4.7-15.5,3-5.6,9.9-7.7,15.5-4.7,1.9,1,3.5,2.5,4.5,4.4,3.2-5.5,10.2-7.3,15.6-4.1,3.5,2,5.7,5.8,5.7,9.9,0,6.3-2.7,8.3-6.1,10.1-.7.4-1.7.2-2.1-.6-.4-.7-.2-1.7.6-2.1,0,0,0,0,0,0,2.7-1.5,4.4-2.6,4.4-7.4,0-4.6-3.7-8.3-8.3-8.4-4.6,0-8.3,3.7-8.4,8.3h0c0,.9-.6,1.6-1.5,1.6-.9,0-1.6-.6-1.6-1.5,0,0,0,0,0-.1,0-4.6-3.7-8.3-8.4-8.3-4.6,0-8.3,3.7-8.3,8.4,0,3.1,1.7,5.9,4.4,7.4.8.4,1,1.3.6,2.1-.3.5-.8.8-1.4.8h0Z"/>
        <g id="Group_13" data-name="Group 13">
          <circle id="Ellipse_13" data-name="Ellipse 13" class="cls-1" cx="108.4" cy="140.9" r="2.9"/>
          <circle id="Ellipse_14" data-name="Ellipse 14" class="cls-1" cx="124.4" cy="140.9" r="2.9"/>
        </g>
        <g id="Group_14" data-name="Group 14">
          <ellipse id="Ellipse_15" data-name="Ellipse 15" class="cls-1" cx="112" cy="18.4" rx="5.5" ry="11.1" transform="translate(5.8 58.5) rotate(-30)"/>
          <ellipse id="Ellipse_16" data-name="Ellipse 16" class="cls-1" cx="120.8" cy="18.4" rx="11.1" ry="5.5" transform="translate(44.4 113.8) rotate(-60)"/>
        </g>
        <g id="Group_15" data-name="Group 15">
          <ellipse id="Ellipse_17" data-name="Ellipse 17" class="cls-4" cx="54.5" cy="152.9" rx="11.1" ry="5.5"/>
          <ellipse id="Ellipse_18" data-name="Ellipse 18" class="cls-4" cx="178.3" cy="152.9" rx="11.1" ry="5.5"/>
        </g>
      </g>
      <path id="TITLE" class="cls-2" d="M59.3,288.5l-20-27.2,19.2-23.6h-18.8l-13.3,19v-19h-15.4v50.8h15.4v-14.1l2.8-3.8,11.4,17.9h18.7ZM56.2,263.1c0,15.6,12.1,26.3,27.8,26.3s27.8-10.7,27.8-26.3-12.1-26.3-27.8-26.3-27.8,10.7-27.8,26.3ZM96.2,263.1c0,7.1-4.8,12.7-12.2,12.7s-12.2-5.6-12.2-12.7,4.8-12.7,12.2-12.7,12.2,5.6,12.2,12.7ZM166.2,288.5v-50.8h-15.4v25.6l-17.7-25.6h-15.8v50.8h15.4v-27.3l18.7,27.3h14.8ZM171.7,263.1c0,16.2,12.6,26.3,28,26.3,8.9.2,17.4-3.6,23.2-10.3v-20.4h-24.8v12.6h9.8v2.2c-2.5,1.6-5.4,2.4-8.3,2.3-7.4,0-12.3-5.6-12.3-12.7s5-12.7,12.3-12.7c3.9,0,7.5,2.1,9.4,5.6l12.9-6.6c-3.5-6.6-10.5-12.5-22.3-12.5-15.4,0-28,10-28,26.3Z"/>
    </g>
  </g>
</svg>