<svg xmlns="http://www.w3.org/2000/svg" width="41.009" height="54.8" viewBox="0 0 41.009 54.8">
  <g id="logo" transform="translate(-38 -258)">
    <g id="kong-logo" transform="translate(39.914 258)">
      <g id="Group_11" data-name="Group 11" transform="translate(2.844 6.366)">
        <g id="Group_9" data-name="Group 9" transform="translate(24.54 0)">
          <circle id="Ellipse_5" data-name="Ellipse 5" cx="3.384" cy="3.384" r="3.384" fill="#464646"/>
          <circle id="Ellipse_6" data-name="Ellipse 6" cx="2.148" cy="2.148" r="2.148" transform="translate(0.642 1.704)" fill="#8c8c8c"/>
        </g>
        <g id="Group_10" data-name="Group 10" transform="translate(0 0)">
          <circle id="Ellipse_7" data-name="Ellipse 7" cx="3.384" cy="3.384" r="3.384" fill="#464646"/>
          <circle id="Ellipse_8" data-name="Ellipse 8" cx="2.148" cy="2.148" r="2.148" transform="translate(1.83 1.704)" fill="#8c8c8c"/>
        </g>
      </g>
      <path id="Path_23" data-name="Path 23" d="M262.486,242.378h0a6.976,6.976,0,0,0-6.978-6.978H244.894a6.977,6.977,0,0,0-6.978,6.978h0a7.107,7.107,0,0,1-2.166,5.112l-.228.228a13.544,13.544,0,0,0-3.822,9.468h0a15.15,15.15,0,0,0,15.15,15.15h6.69a15.15,15.15,0,0,0,15.15-15.15h0a13.565,13.565,0,0,0-3.822-9.468c-2.466-2.532-.15-.156-.228-.228a7.117,7.117,0,0,1-2.166-5.112Z" transform="translate(-231.7 -231.77)" fill="#464646"/>
      <path id="Path_24" data-name="Path 24" d="M233.812,257.186h0a13.565,13.565,0,0,1,3.822-9.468c.078-.078.15-.156.228-.228a7.117,7.117,0,0,0,2.166-5.112h0a6.977,6.977,0,0,1,6.978-6.978h-2.112a6.977,6.977,0,0,0-6.978,6.978h0a7.107,7.107,0,0,1-2.166,5.112l-.228.228a13.544,13.544,0,0,0-3.822,9.468h0a15.15,15.15,0,0,0,15.15,15.15h2.112A15.15,15.15,0,0,1,233.812,257.186Z" transform="translate(-231.7 -231.77)" fill="#231f20"/>
      <path id="Path_25" data-name="Path 25" d="M359.776,428.85a6.448,6.448,0,0,0-6.45-6.45c-3.564,0-4.8,1.512-5.838,3.7a6.453,6.453,0,0,0-5.838-3.7c-2.58,0-6.45,2.886-6.45,6.45a5.955,5.955,0,0,0,4.7,6.21,7.939,7.939,0,1,0,15.528,2.334c0-4.386-.12-1.6-.348-2.334A6.454,6.454,0,0,0,359.776,428.85Z" transform="translate(-328.99 -407.55)" fill="#8c8c8c"/>
      <path id="Path_26" data-name="Path 26" d="M416.39,639.97c-4.351,0-7.89-3.216-7.89-7.17a.3.3,0,0,1,.6,0c0,3.623,3.27,6.57,7.29,6.57s7.29-2.947,7.29-6.57a.3.3,0,0,1,.6,0C424.28,636.753,420.741,639.97,416.39,639.97Z" transform="translate(-397.892 -605.043)" fill="#464646"/>
      <g id="Group_12" data-name="Group 12" transform="translate(10.05 19.164)">
        <circle id="Ellipse_9" data-name="Ellipse 9" cx="2.496" cy="2.496" r="2.496" fill="#231f20"/>
        <circle id="Ellipse_10" data-name="Ellipse 10" cx="2.496" cy="2.496" r="2.496" transform="translate(11.904)" fill="#231f20"/>
        <circle id="Ellipse_11" data-name="Ellipse 11" cx="0.756" cy="0.756" r="0.756" transform="translate(2.496 1.32)" fill="#fff"/>
        <circle id="Ellipse_12" data-name="Ellipse 12" cx="0.756" cy="0.756" r="0.756" transform="translate(12.888 1.32)" fill="#fff"/>
      </g>
      <path id="Path_27" data-name="Path 27" d="M472.514,576.606a.3.3,0,0,1-.141-.036,3.685,3.685,0,0,1,7.083-1.957,1.892,1.892,0,0,1-1.171,1.956.3.3,0,0,1-.285-.528,1.317,1.317,0,0,0,.857-1.428,1.614,1.614,0,1,0-3.228,0,.3.3,0,1,1-.6,0,1.614,1.614,0,1,0-2.373,1.427.3.3,0,0,1-.142.565Z" transform="translate(-456.83 -548.55)" fill="#464646"/>
      <g id="Group_13" data-name="Group 13" transform="translate(16.386 25.512)">
        <circle id="Ellipse_13" data-name="Ellipse 13" cx="0.57" cy="0.57" r="0.57" transform="translate(0 0)" fill="#464646"/>
        <circle id="Ellipse_14" data-name="Ellipse 14" cx="0.57" cy="0.57" r="0.57" transform="translate(3.084 0)" fill="#464646"/>
      </g>
      <g id="Group_14" data-name="Group 14" transform="translate(15.658 0)">
        <ellipse id="Ellipse_15" data-name="Ellipse 15" cx="1.056" cy="2.148" rx="1.056" ry="2.148" transform="translate(0 1.058) rotate(-30)" fill="#464646"/>
        <ellipse id="Ellipse_16" data-name="Ellipse 16" cx="2.148" cy="1.056" rx="2.148" ry="1.056" transform="translate(1.706 3.72) rotate(-60)" fill="#464646"/>
      </g>
      <g id="Group_15" data-name="Group 15" transform="translate(4.368 27.342)">
        <ellipse id="Ellipse_17" data-name="Ellipse 17" cx="2.148" cy="1.056" rx="2.148" ry="1.056" transform="translate(0)" fill="#ffd3cf"/>
        <ellipse id="Ellipse_18" data-name="Ellipse 18" cx="2.148" cy="1.056" rx="2.148" ry="1.056" transform="translate(23.964)" fill="#ffd3cf"/>
      </g>
    </g>
    <path id="TITLE" d="M-10,.5l-3.875-5.261L-10.16-9.33H-13.8l-2.579,3.684V-9.33h-2.977V.5h2.977V-2.227l.545-.737L-13.623.5Zm-.589-4.907A5.067,5.067,0,0,0-5.209.675,5.067,5.067,0,0,0,.169-4.408,5.067,5.067,0,0,0-5.209-9.492,5.067,5.067,0,0,0-10.587-4.408Zm7.736,0A2.326,2.326,0,0,1-5.209-1.947,2.326,2.326,0,0,1-7.567-4.408,2.326,2.326,0,0,1-5.209-6.869,2.326,2.326,0,0,1-2.851-4.408ZM10.691.5V-9.33H7.714v4.951L4.3-9.33H1.23V.5H4.207V-4.777L7.832.5Zm1.061-4.907c0,3.139,2.431,5.084,5.408,5.084a5.835,5.835,0,0,0,4.494-1.989V-5.263H16.865v2.446h1.9v.427a2.8,2.8,0,0,1-1.606.442,2.35,2.35,0,0,1-2.387-2.461,2.35,2.35,0,0,1,2.387-2.461,2.035,2.035,0,0,1,1.812,1.076l2.505-1.282a4.62,4.62,0,0,0-4.317-2.417C14.183-9.492,11.752-7.562,11.752-4.408Z" transform="translate(57.355 312.124)" fill="#6ac15e"/>
  </g>
</svg>
