<?xml version="1.0" encoding="UTF-8"?>
<svg id="Layer_1" data-name="Layer 1" xmlns="http://www.w3.org/2000/svg" version="1.1" viewBox="0 0 230 331.9">
  <defs>
    <style>
      .cls-1 {
        fill: #464646;
      }

      .cls-1, .cls-2, .cls-3, .cls-4, .cls-5 {
        stroke-width: 0px;
      }

      .cls-2 {
        fill: #8c8c8c;
      }

      .cls-3 {
        fill: #ffd3cf;
      }

      .cls-6 {
        isolation: isolate;
      }

      .cls-4 {
        fill: #fff;
      }

      .cls-5 {
        fill: #231f20;
      }
    </style>
  </defs>
  <g id="Group_108" data-name="Group 108">
    <g id="Group_19" data-name="Group 19">
      <g id="kong-logo">
        <g id="Group_11" data-name="Group 11">
          <g id="Group_9" data-name="Group 9">
            <circle id="Ellipse_5" data-name="Ellipse 5" class="cls-1" cx="179.8" cy="56.5" r="17.5"/>
            <circle id="Ellipse_6" data-name="Ellipse 6" class="cls-2" cx="176.8" cy="58.9" r="11.1"/>
          </g>
          <g id="Group_10" data-name="Group 10">
            <circle id="Ellipse_7" data-name="Ellipse 7" class="cls-1" cx="53" cy="56.5" r="17.5"/>
            <circle id="Ellipse_8" data-name="Ellipse 8" class="cls-2" cx="56" cy="58.9" r="11.1"/>
          </g>
        </g>
        <path id="Path_23" data-name="Path 23" class="cls-1" d="M179.9,60.9h0c0-19.9-16.1-36.1-36.1-36.1h-54.9c-19.9,0-36.1,16.1-36.1,36.1h0c0,10-4,19.5-11.2,26.4l-1.2,1.2c-12.7,13.1-19.8,30.7-19.8,48.9h0c0,43.3,35.1,78.3,78.3,78.3h34.6c43.3,0,78.3-35.1,78.3-78.3h0c0-18.3-7-35.8-19.8-48.9-12.7-13.1-.8-.8-1.2-1.2-7.2-6.9-11.2-16.5-11.2-26.4h0Z"/>
        <path id="Path_24" data-name="Path 24" class="cls-5" d="M31.7,137.5h0c0-18.3,7-35.8,19.8-48.9.4-.4.8-.8,1.2-1.2,7.2-6.9,11.2-16.5,11.2-26.4h0c0-19.9,16.1-36.1,36.1-36.1h0-10.9c-19.9,0-36.1,16.1-36.1,36.1h0c0,10-4,19.5-11.2,26.4l-1.2,1.2c-12.7,13.1-19.8,30.7-19.8,48.9h0c0,43.3,35.1,78.3,78.3,78.3h10.9c-43.3,0-78.3-35.1-78.3-78.3Z"/>
        <path id="Path_25" data-name="Path 25" class="cls-2" d="M179.9,116.2c0-18.4-14.9-33.3-33.3-33.3h0c-18.4,0-24.8,7.8-30.2,19.1-5.5-11.7-17.3-19.1-30.2-19.1-13.3,0-33.3,14.9-33.3,33.3s10.3,28.2,24.3,32.1c-6.7,21.7,5.5,44.6,27.2,51.3,21.7,6.7,44.6-5.5,51.3-27.2,1.2-3.9,1.8-8,1.8-12.1,0-22.7-.6-8.3-1.8-12.1,14.4-4.1,24.3-17.2,24.3-32.1Z"/>
        <path id="Path_26" data-name="Path 26" class="cls-1" d="M116.4,186.6c-22.5,0-40.8-16.6-40.8-37.1,0-.9.7-1.5,1.6-1.5.8,0,1.5.7,1.5,1.5,0,18.7,16.9,34,37.7,34s37.7-15.2,37.7-34c0-.9.6-1.6,1.5-1.6.9,0,1.6.6,1.6,1.5,0,0,0,0,0,.1,0,20.4-18.3,37.1-40.8,37.1Z"/>
        <g id="Group_12" data-name="Group 12">
          <circle id="Ellipse_9" data-name="Ellipse 9" class="cls-5" cx="85.6" cy="118.1" r="12.9"/>
          <circle id="Ellipse_10" data-name="Ellipse 10" class="cls-5" cx="147.2" cy="118.1" r="12.9"/>
          <circle id="Ellipse_11" data-name="Ellipse 11" class="cls-4" cx="89.5" cy="115.9" r="3.9"/>
          <circle id="Ellipse_12" data-name="Ellipse 12" class="cls-4" cx="143.3" cy="115.9" r="3.9"/>
        </g>
        <path id="Path_27" data-name="Path 27" class="cls-1" d="M101.9,151.1c-.3,0-.5,0-.7-.2-5.6-3-7.7-9.9-4.7-15.5,3-5.6,9.9-7.7,15.5-4.7,1.9,1,3.5,2.5,4.5,4.4,3.2-5.5,10.2-7.3,15.6-4.1,3.5,2,5.7,5.8,5.7,9.9,0,6.3-2.7,8.3-6.1,10.1-.7.4-1.7.2-2.1-.6-.4-.7-.2-1.7.6-2.1,0,0,0,0,0,0,2.7-1.5,4.4-2.6,4.4-7.4,0-4.6-3.7-8.3-8.3-8.4-4.6,0-8.3,3.7-8.4,8.3h0c0,.9-.6,1.6-1.5,1.6-.9,0-1.6-.6-1.6-1.5,0,0,0,0,0-.1,0-4.6-3.7-8.3-8.4-8.3-4.6,0-8.3,3.7-8.3,8.4,0,3.1,1.7,5.9,4.4,7.4.8.4,1,1.3.6,2.1-.3.5-.8.8-1.4.8h0Z"/>
        <g id="Group_13" data-name="Group 13">
          <circle id="Ellipse_13" data-name="Ellipse 13" class="cls-1" cx="108.4" cy="140.9" r="2.9"/>
          <circle id="Ellipse_14" data-name="Ellipse 14" class="cls-1" cx="124.4" cy="140.9" r="2.9"/>
        </g>
        <g id="Group_14" data-name="Group 14">
          <ellipse id="Ellipse_15" data-name="Ellipse 15" class="cls-1" cx="112" cy="18.4" rx="5.5" ry="11.1" transform="translate(5.8 58.5) rotate(-30)"/>
          <ellipse id="Ellipse_16" data-name="Ellipse 16" class="cls-1" cx="120.8" cy="18.4" rx="11.1" ry="5.5" transform="translate(44.4 113.8) rotate(-60)"/>
        </g>
        <g id="Group_15" data-name="Group 15">
          <ellipse id="Ellipse_17" data-name="Ellipse 17" class="cls-3" cx="54.5" cy="152.9" rx="11.1" ry="5.5"/>
          <ellipse id="Ellipse_18" data-name="Ellipse 18" class="cls-3" cx="178.3" cy="152.9" rx="11.1" ry="5.5"/>
        </g>
      </g>
      <path id="TITLE" class="cls-5" d="M59.3,288.5l-20-27.2,19.2-23.6h-18.8l-13.3,19v-19h-15.4v50.8h15.4v-14.1l2.8-3.8,11.4,17.9h18.7ZM56.2,263.1c0,15.6,12.1,26.3,27.8,26.3s27.8-10.7,27.8-26.3-12.1-26.3-27.8-26.3-27.8,10.7-27.8,26.3ZM96.2,263.1c0,7.1-4.8,12.7-12.2,12.7s-12.2-5.6-12.2-12.7,4.8-12.7,12.2-12.7,12.2,5.6,12.2,12.7ZM166.2,288.5v-50.8h-15.4v25.6l-17.7-25.6h-15.8v50.8h15.4v-27.3l18.7,27.3h14.8ZM171.7,263.1c0,16.2,12.6,26.3,28,26.3,8.9.2,17.4-3.6,23.2-10.3v-20.4h-24.8v12.6h9.8v2.2c-2.5,1.6-5.4,2.4-8.3,2.3-7.4,0-12.3-5.6-12.3-12.7s5-12.7,12.3-12.7c3.9,0,7.5,2.1,9.4,5.6l12.9-6.6c-3.5-6.6-10.5-12.5-22.3-12.5-15.4,0-28,10-28,26.3Z"/>
    </g>
    <g id="FEED" class="cls-6">
      <g class="cls-6">
        <path class="cls-5" d="M10,316.7v-13.5h3.3v5.7h.2l4.5-5.7h3.8l-4.8,6,4.9,7.5h-3.9l-3.4-5.3-1.3,1.6v3.7h-3.3Z"/>
        <path class="cls-5" d="M27.8,316.9c-1.1,0-2-.2-2.7-.6s-1.4-1-1.8-1.8c-.4-.8-.6-1.7-.6-2.8s.2-2,.6-2.7c.4-.8,1-1.4,1.7-1.8.8-.4,1.6-.7,2.7-.7s1.4.1,2,.3c.6.2,1.1.6,1.5,1,.4.4.8,1,1,1.6.2.6.4,1.4.4,2.2v.8h-8.8v-1.9h5.8c0-.3,0-.6-.2-.9-.2-.3-.4-.5-.6-.6-.3-.2-.6-.2-.9-.2s-.7,0-1,.2-.5.4-.7.7c-.2.3-.3.6-.3.9v1.9c0,.4,0,.8.2,1.1.2.3.4.5.7.7.3.2.7.3,1.1.3s.5,0,.8-.1.4-.2.6-.3c.2-.2.3-.3.4-.6h3c-.1.7-.4,1.3-.8,1.8-.4.5-1,.9-1.6,1.1-.7.3-1.4.4-2.3.4Z"/>
        <path class="cls-5" d="M38.9,316.9c-1.1,0-2-.2-2.7-.6s-1.4-1-1.8-1.8c-.4-.8-.6-1.7-.6-2.8s.2-2,.6-2.7c.4-.8,1-1.4,1.7-1.8.8-.4,1.6-.7,2.7-.7s1.4.1,2,.3c.6.2,1.1.6,1.5,1,.4.4.8,1,1,1.6.2.6.4,1.4.4,2.2v.8h-8.8v-1.9h5.8c0-.3,0-.6-.2-.9s-.4-.5-.6-.6c-.3-.2-.6-.2-.9-.2s-.7,0-1,.2-.5.4-.7.7-.3.6-.3.9v1.9c0,.4,0,.8.2,1.1.2.3.4.5.7.7.3.2.7.3,1.1.3s.5,0,.8-.1c.2,0,.4-.2.6-.3s.3-.3.4-.6h3c-.1.7-.4,1.3-.8,1.8-.4.5-1,.9-1.6,1.1-.7.3-1.4.4-2.3.4Z"/>
        <path class="cls-5" d="M45.4,320.5v-13.9h3.2v1.7h0c.1-.3.3-.6.6-.9.2-.3.6-.5.9-.7.4-.2.8-.3,1.4-.3s1.4.2,2,.6,1.1.9,1.5,1.7c.4.8.6,1.7.6,2.9s-.2,2.1-.5,2.9c-.4.8-.8,1.4-1.5,1.7-.6.4-1.3.6-2,.6s-1,0-1.3-.2c-.4-.2-.7-.4-.9-.7-.3-.3-.4-.6-.6-.9h0v5.4h-3.2ZM48.5,311.6c0,.5,0,1,.2,1.4.1.4.4.7.6.9.3.2.6.3,1,.3s.7-.1,1-.3.5-.5.6-.9c.1-.4.2-.9.2-1.4s0-1-.2-1.4-.4-.7-.6-.9c-.3-.2-.6-.3-1-.3s-.7.1-1,.3-.5.5-.6.9c-.1.4-.2.9-.2,1.4Z"/>
        <path class="cls-5" d="M74,309.9c0,1.5-.3,2.7-.9,3.8s-1.3,1.8-2.3,2.3c-1,.5-2.1.8-3.3.8s-2.3-.3-3.3-.8c-1-.5-1.7-1.3-2.3-2.4-.6-1-.9-2.3-.9-3.8s.3-2.7.9-3.8c.6-1,1.3-1.8,2.3-2.3,1-.5,2.1-.8,3.3-.8s2.3.3,3.3.8c1,.5,1.7,1.3,2.3,2.3.6,1,.9,2.3.9,3.8ZM70.6,309.9c0-.9-.1-1.6-.4-2.2s-.6-1.1-1.1-1.4-1-.5-1.7-.5-1.2.2-1.7.5c-.5.3-.8.8-1.1,1.4s-.4,1.3-.4,2.2.1,1.6.4,2.2c.2.6.6,1.1,1.1,1.4.5.3,1,.5,1.7.5s1.2-.2,1.7-.5.8-.8,1.1-1.4c.2-.6.4-1.3.4-2.2Z"/>
        <path class="cls-5" d="M82.4,312.3v-5.7h3.2v10.1h-3.1v-1.9h-.1c-.2.6-.6,1.1-1.1,1.5-.5.4-1.2.5-1.9.5s-1.3-.2-1.8-.5c-.5-.3-.9-.8-1.2-1.3-.3-.6-.4-1.2-.4-2v-6.4h3.2v5.8c0,.5.1,1,.4,1.3.3.3.7.5,1.2.5s.6,0,.9-.2.5-.4.6-.6c.2-.3.2-.6.2-1Z"/>
        <path class="cls-5" d="M87.6,316.7v-10.1h3.1v1.8h.1c.2-.7.5-1.2.9-1.5.4-.3.9-.5,1.5-.5s.3,0,.5,0c.2,0,.3,0,.4,0v2.8c-.2,0-.4,0-.6-.1-.2,0-.5,0-.7,0-.4,0-.7,0-1,.3-.3.2-.5.4-.7.7-.2.3-.3.7-.3,1.1v5.5h-3.2Z"/>
        <path class="cls-5" d="M110.9,303.2v13.5h-2.8l-5.4-7.8h0v7.8h-3.3v-13.5h2.8l5.3,7.8h.1v-7.8h3.3Z"/>
        <path class="cls-5" d="M115.8,316.9c-.6,0-1.2-.1-1.7-.3-.5-.2-.9-.5-1.2-1-.3-.4-.4-1-.4-1.7s0-1,.3-1.4c.2-.4.5-.7.8-.9s.7-.4,1.2-.5c.5-.1.9-.2,1.4-.3.6,0,1-.1,1.4-.2.4,0,.6-.1.8-.3.2-.1.2-.3.2-.5h0c0-.4-.1-.6-.3-.8-.2-.2-.5-.3-.9-.3s-.8,0-1,.3c-.3.2-.4.4-.5.8h-3c0-.7.3-1.3.7-1.8.4-.5.9-.9,1.5-1.1.6-.3,1.4-.4,2.3-.4s1.2,0,1.8.2,1,.4,1.4.7c.4.3.7.6.9,1.1.2.4.3.9.3,1.4v6.9h-3v-1.4h0c-.2.3-.4.6-.7.9-.3.2-.6.4-1,.5-.4.1-.8.2-1.3.2ZM116.8,314.7c.3,0,.7,0,.9-.2s.5-.3.7-.6c.2-.2.2-.5.2-.9v-1c0,0-.2,0-.3.1-.1,0-.3,0-.4.1s-.3,0-.5,0c-.2,0-.3,0-.5,0-.3,0-.6.1-.8.2s-.4.2-.5.4c-.1.2-.2.3-.2.6,0,.3.1.6.4.8s.5.3.9.3Z"/>
        <path class="cls-5" d="M129.5,306.6v2.4h-6.4v-2.4h6.4ZM124.5,304.1h3.2v9.4c0,.2,0,.4,0,.5,0,.1.2.2.3.3.1,0,.3,0,.4,0s.3,0,.4,0c.1,0,.2,0,.3,0l.5,2.3c-.2,0-.4,0-.6.2-.3,0-.6.1-1,.1-.8,0-1.4,0-1.9-.3-.5-.2-.9-.5-1.2-1s-.4-1-.4-1.7v-9.7Z"/>
        <path class="cls-5" d="M137.7,312.3v-5.7h3.2v10.1h-3.1v-1.9h-.1c-.2.6-.6,1.1-1.1,1.5-.5.4-1.2.5-1.9.5s-1.3-.2-1.8-.5c-.5-.3-.9-.8-1.2-1.3-.3-.6-.4-1.2-.4-2v-6.4h3.2v5.8c0,.5.1,1,.4,1.3.3.3.7.5,1.2.5s.6,0,.9-.2.5-.4.6-.6c.2-.3.2-.6.2-1Z"/>
        <path class="cls-5" d="M142.9,316.7v-10.1h3.1v1.8h.1c.2-.7.5-1.2.9-1.5.4-.3.9-.5,1.5-.5s.3,0,.5,0c.2,0,.3,0,.4,0v2.8c-.2,0-.4,0-.6-.1-.2,0-.5,0-.7,0-.4,0-.7,0-1,.3s-.5.4-.7.7c-.2.3-.3.7-.3,1.1v5.5h-3.2Z"/>
        <path class="cls-5" d="M155.5,316.9c-1.1,0-2-.2-2.7-.6s-1.4-1-1.8-1.8c-.4-.8-.6-1.7-.6-2.8s.2-2,.6-2.7c.4-.8,1-1.4,1.7-1.8.8-.4,1.6-.7,2.7-.7s1.4.1,2,.3c.6.2,1.1.6,1.5,1,.4.4.8,1,1,1.6.2.6.4,1.4.4,2.2v.8h-8.8v-1.9h5.8c0-.3,0-.6-.2-.9-.2-.3-.4-.5-.6-.6-.3-.2-.6-.2-.9-.2s-.7,0-1,.2-.5.4-.7.7c-.2.3-.3.6-.3.9v1.9c0,.4,0,.8.2,1.1.2.3.4.5.7.7.3.2.7.3,1.1.3s.5,0,.8-.1.4-.2.6-.3c.2-.2.3-.3.4-.6h3c-.1.7-.4,1.3-.8,1.8-.4.5-1,.9-1.6,1.1-.7.3-1.4.4-2.3.4Z"/>
        <path class="cls-5" d="M174.7,307.6c0-.3-.2-.5-.3-.7s-.3-.4-.5-.5c-.2-.1-.5-.3-.7-.3-.3,0-.6-.1-.9-.1-.7,0-1.2.2-1.7.5-.5.3-.8.8-1.1,1.4-.3.6-.4,1.3-.4,2.2s.1,1.6.4,2.2c.2.6.6,1.1,1.1,1.4s1,.5,1.7.5,1.1,0,1.5-.3c.4-.2.7-.5.9-.8.2-.4.3-.8.3-1.3h.6c0,0-3.3,0-3.3,0v-2.4h5.8v1.8c0,1.2-.3,2.2-.8,3.1-.5.9-1.2,1.5-2.1,2-.9.5-1.9.7-3.1.7s-2.4-.3-3.4-.8c-1-.6-1.7-1.4-2.3-2.4-.5-1-.8-2.3-.8-3.7s.2-2.1.5-2.9c.3-.9.8-1.6,1.4-2.2.6-.6,1.3-1,2.1-1.4.8-.3,1.6-.5,2.5-.5s1.5.1,2.2.3c.7.2,1.3.5,1.8.9s.9.9,1.3,1.5c.3.6.5,1.2.6,1.8h-3.3Z"/>
        <path class="cls-5" d="M180.1,316.7v-10.1h3.1v1.8h.1c.2-.7.5-1.2.9-1.5.4-.3.9-.5,1.5-.5s.3,0,.5,0c.2,0,.3,0,.4,0v2.8c-.2,0-.4,0-.6-.1-.2,0-.5,0-.7,0-.4,0-.7,0-1,.3s-.5.4-.7.7c-.2.3-.3.7-.3,1.1v5.5h-3.2Z"/>
        <path class="cls-5" d="M192.6,316.9c-1.1,0-2-.2-2.7-.6s-1.4-1-1.8-1.8c-.4-.8-.6-1.7-.6-2.8s.2-2,.6-2.7c.4-.8,1-1.4,1.7-1.8.8-.4,1.6-.7,2.7-.7s1.4.1,2,.3c.6.2,1.1.6,1.5,1,.4.4.8,1,1,1.6.2.6.4,1.4.4,2.2v.8h-8.8v-1.9h5.8c0-.3,0-.6-.2-.9-.2-.3-.4-.5-.6-.6-.3-.2-.6-.2-.9-.2s-.7,0-1,.2-.5.4-.7.7c-.2.3-.3.6-.3.9v1.9c0,.4,0,.8.2,1.1.2.3.4.5.7.7.3.2.7.3,1.1.3s.5,0,.8-.1.4-.2.6-.3c.2-.2.3-.3.4-.6h3c-.1.7-.4,1.3-.8,1.8-.4.5-1,.9-1.6,1.1-.7.3-1.4.4-2.3.4Z"/>
        <path class="cls-5" d="M203.8,316.9c-1.1,0-2-.2-2.7-.6s-1.4-1-1.8-1.8c-.4-.8-.6-1.7-.6-2.8s.2-2,.6-2.7c.4-.8,1-1.4,1.7-1.8.8-.4,1.6-.7,2.7-.7s1.4.1,2,.3c.6.2,1.1.6,1.5,1,.4.4.8,1,1,1.6.2.6.4,1.4.4,2.2v.8h-8.8v-1.9h5.8c0-.3,0-.6-.2-.9-.2-.3-.4-.5-.6-.6-.3-.2-.6-.2-.9-.2s-.7,0-1,.2-.5.4-.7.7c-.2.3-.3.6-.3.9v1.9c0,.4,0,.8.2,1.1.2.3.4.5.7.7.3.2.7.3,1.1.3s.5,0,.8-.1.4-.2.6-.3c.2-.2.3-.3.4-.6h3c-.1.7-.4,1.3-.8,1.8-.4.5-1,.9-1.6,1.1-.7.3-1.4.4-2.3.4Z"/>
        <path class="cls-5" d="M213.5,310.9v5.8h-3.2v-10.1h3.1v1.9h.1c.2-.6.6-1.1,1.1-1.5.5-.4,1.2-.5,1.9-.5s1.3.2,1.9.5c.5.3.9.8,1.2,1.3s.4,1.2.4,2v6.4h-3.2v-5.8c0-.6-.1-1-.4-1.3-.3-.3-.7-.5-1.2-.5s-.6,0-.9.2c-.3.1-.5.4-.6.6-.1.3-.2.6-.2,1Z"/>
      </g>
    </g>
  </g>
</svg>