<?xml version="1.0" encoding="UTF-8"?>
<svg id="Layer_1" data-name="Layer 1" xmlns="http://www.w3.org/2000/svg" version="1.1" viewBox="0 0 149 41.1">
  <defs>
    <style>
      .cls-1 {
        fill: #464646;
      }

      .cls-1, .cls-2, .cls-3, .cls-4, .cls-5, .cls-6 {
        stroke-width: 0px;
      }

      .cls-2 {
        fill: #6ac15e;
      }

      .cls-3 {
        fill: #8c8c8c;
      }

      .cls-4 {
        fill: #ffd3cf;
      }

      .cls-5 {
        fill: #fff;
      }

      .cls-6 {
        fill: #231f20;
      }
    </style>
  </defs>
  <g id="logo">
    <g id="kong-logo">
      <g id="Group_11" data-name="Group 11">
        <g id="Group_9" data-name="Group 9">
          <circle id="Ellipse_5" data-name="Ellipse 5" class="cls-1" cx="32.5" cy="9.8" r="3.4"/>
          <circle id="Ellipse_6" data-name="Ellipse 6" class="cls-3" cx="31.9" cy="10.2" r="2.1"/>
        </g>
        <g id="Group_10" data-name="Group 10">
          <circle id="Ellipse_7" data-name="Ellipse 7" class="cls-1" cx="7.9" cy="9.8" r="3.4"/>
          <circle id="Ellipse_8" data-name="Ellipse 8" class="cls-3" cx="8.5" cy="10.2" r="2.1"/>
        </g>
      </g>
      <path id="Path_23" data-name="Path 23" class="cls-1" d="M32.5,10.6h0c0-3.9-3.1-7-7-7h-10.6c-3.9,0-7,3.1-7,7h0c0,1.9-.8,3.8-2.2,5.1l-.2.2c-2.5,2.5-3.8,5.9-3.8,9.5h0c0,8.4,6.8,15.1,15.1,15.1h6.7c8.4,0,15.2-6.8,15.2-15.1h0c0-3.5-1.4-6.9-3.8-9.5-2.5-2.5-.1-.2-.2-.2-1.4-1.3-2.2-3.2-2.2-5.1h0Z"/>
      <path id="Path_24" data-name="Path 24" class="cls-6" d="M3.8,25.4h0c0-3.5,1.4-6.9,3.8-9.5,0,0,.1-.2.2-.2,1.4-1.3,2.2-3.2,2.2-5.1h0c0-3.9,3.1-7,7-7h0-2.1c-3.9,0-7,3.1-7,7h0c0,1.9-.8,3.8-2.2,5.1l-.2.2c-2.5,2.5-3.8,5.9-3.8,9.5h0c0,8.4,6.8,15.1,15.1,15.1h2.1c-8.4,0-15.1-6.8-15.1-15.1Z"/>
      <path id="Path_25" data-name="Path 25" class="cls-3" d="M32.5,21.3c0-3.6-2.9-6.4-6.4-6.5h0c-3.6,0-4.8,1.5-5.8,3.7-1.1-2.3-3.3-3.7-5.8-3.7-2.6,0-6.5,2.9-6.5,6.5-.2,2.9,1.8,5.6,4.7,6.2-1.3,4.2,1.1,8.6,5.3,9.9,4.2,1.3,8.6-1.1,9.9-5.3.2-.8.3-1.5.3-2.3,0-4.4-.1-1.6-.3-2.3,2.8-.8,4.7-3.3,4.7-6.2Z"/>
      <path id="Path_26" data-name="Path 26" class="cls-1" d="M20.2,35c-4.4,0-7.9-3.2-7.9-7.2s.1-.3.3-.3.3.1.3.3c0,3.6,3.3,6.6,7.3,6.6s7.3-2.9,7.3-6.6.1-.3.3-.3.3.1.3.3c0,4-3.5,7.2-7.9,7.2Z"/>
      <g id="Group_12" data-name="Group 12">
        <circle id="Ellipse_9" data-name="Ellipse 9" class="cls-6" cx="14.2" cy="21.7" r="2.5"/>
        <circle id="Ellipse_10" data-name="Ellipse 10" class="cls-6" cx="26.1" cy="21.7" r="2.5"/>
        <circle id="Ellipse_11" data-name="Ellipse 11" class="cls-5" cx="15" cy="21.3" r=".8"/>
        <circle id="Ellipse_12" data-name="Ellipse 12" class="cls-5" cx="25.4" cy="21.3" r=".8"/>
      </g>
      <path id="Path_27" data-name="Path 27" class="cls-1" d="M17.4,28.1s0,0-.1,0c-.4-2,.9-3.9,2.9-4.3,1.8-.3,3.6.7,4.2,2.4,0,.8-.4,1.6-1.2,2-.1,0-.3,0-.4-.1,0-.1,0-.3.1-.4h0c.6-.2.9-.8.9-1.4,0-.9-.7-1.6-1.6-1.6-.9,0-1.6.7-1.6,1.6h0c0,.2-.1.3-.3.3s-.3-.1-.3-.3c0-.9-.7-1.6-1.6-1.6-.9,0-1.6.7-1.6,1.6,0,.6.3,1.1.9,1.4.1,0,.2.3.1.4,0,0-.2.2-.3.2h0Z"/>
      <g id="Group_13" data-name="Group 13">
        <circle id="Ellipse_13" data-name="Ellipse 13" class="cls-1" cx="18.7" cy="26.1" r=".6"/>
        <circle id="Ellipse_14" data-name="Ellipse 14" class="cls-1" cx="21.7" cy="26.1" r=".6"/>
      </g>
      <g id="Group_14" data-name="Group 14">
        <ellipse id="Ellipse_15" data-name="Ellipse 15" class="cls-1" cx="19.3" cy="2.4" rx="1.1" ry="2.1" transform="translate(1.4 10) rotate(-30)"/>
        <ellipse id="Ellipse_16" data-name="Ellipse 16" class="cls-1" cx="21" cy="2.4" rx="2.1" ry="1.1" transform="translate(8.4 19.4) rotate(-60)"/>
      </g>
      <g id="Group_15" data-name="Group 15">
        <ellipse id="Ellipse_17" data-name="Ellipse 17" class="cls-4" cx="8.2" cy="28.4" rx="2.1" ry="1.1"/>
        <ellipse id="Ellipse_18" data-name="Ellipse 18" class="cls-4" cx="32.2" cy="28.4" rx="2.1" ry="1.1"/>
      </g>
    </g>
    <path id="TITLE" class="cls-2" d="M69,32.7l-9.6-13,9.2-11.3h-9l-6.4,9.1v-9.1h-7.4v24.3h7.4v-6.7l1.3-1.8,5.5,8.6h9ZM67.6,20.5c0,6.9,5.6,12.6,12.5,12.6.3,0,.6,0,.8,0,6.9.4,12.9-4.8,13.3-11.7,0-.3,0-.6,0-.8,0-6.9-5.5-12.6-12.5-12.6-.3,0-.6,0-.8,0-6.9-.4-12.9,4.8-13.3,11.7,0,.3,0,.6,0,.8h0ZM86.7,20.5c.2,3.2-2.2,5.9-5.4,6.1-.1,0-.3,0-.4,0-3.2,0-5.8-2.5-5.8-5.7,0-.1,0-.3,0-.4-.2-3.2,2.2-5.9,5.4-6.1.1,0,.3,0,.4,0,3.2,0,5.8,2.5,5.8,5.7,0,.1,0,.3,0,.4h0ZM120.2,32.7V8.4h-7.4v12.2l-8.4-12.2h-7.6v24.3h7.4v-13.1l9,13.1h7.1ZM122.8,20.5c0,7.8,6,12.6,13.4,12.6,4.2,0,8.3-1.7,11.1-4.9v-9.8h-11.8v6.1h4.7v1.1c-1.2.8-2.6,1.1-4,1.1-3.2,0-5.9-2.5-5.9-5.7,0-.1,0-.2,0-.4-.2-3.2,2.3-5.9,5.5-6.1.1,0,.2,0,.4,0,1.9,0,3.6,1,4.5,2.7l6.2-3.2c-2.1-3.9-6.3-6.2-10.7-6-7.4,0-13.4,4.8-13.4,12.6h0Z"/>
  </g>
</svg>